<?xml version="1.0" encoding="UTF-8"?>
<svg width="22px" height="20px" viewBox="0 0 22 20" version="1.1" xmlns="http://www.w3.org/2000/svg" xmlns:xlink="http://www.w3.org/1999/xlink">
    <!-- Generator: Sketch 48.1 (47250) - http://www.bohemiancoding.com/sketch -->
    <title>API_LANDING_ICON_VERSION</title>
    <desc>Created with Sketch.</desc>
    <defs></defs>
    <g id="V2" stroke="none" stroke-width="1" fill="none" fill-rule="evenodd" transform="translate(-933.000000, -2326.000000)">
        <g id="SECTION-BLOCK---DOCUMENTATION" transform="translate(-11.000000, 2254.000000)">
            <g id="API_LANDING_ICON_VERSION" transform="translate(943.000000, 70.000000)">
                <rect id="Rectangle-9" fill-opacity="0" fill="#FFFFFF" x="0" y="0" width="24" height="24"></rect>
                <path d="M9,8.4331 L4.359,6.0771 L9,4.0881 L13.641,6.0771 L9,8.4331 Z M8,16.4831 L3,14.3411 L3,7.6301 L8,10.1681 L8,16.4831 Z M12,15.6261 L10,16.4831 L10,10.1681 L15,7.6301 L15,10.0001 L17,10.0001 L17,6.0001 C17,5.6001 16.762,5.2381 16.394,5.0811 L9.394,2.0811 C9.142,1.9731 8.858,1.9731 8.606,2.0811 L1.606,5.0811 C1.238,5.2381 1,5.6001 1,6.0001 L1,15.0001 C1,15.4001 1.238,15.7621 1.606,15.9191 L8.606,18.9191 C8.732,18.9731 8.866,19.0001 9,19.0001 C9.134,19.0001 9.268,18.9731 9.394,18.9191 L12,17.8031 L12,15.6261 Z" id="Fill-476" fill="#1882F8"></path>
                <path d="M19,19.3818 L19,16.6188 L21,15.6188 L21,18.3818 L19,19.3818 Z M15,15.6188 L17,16.6188 L17,19.3818 L15,18.3818 L15,15.6188 Z M18,13.1188 L19.764,13.9998 L18,14.8818 L16.236,13.9998 L18,13.1188 Z M22.447,13.1058 L18.447,11.1058 C18.166,10.9648 17.834,10.9648 17.553,11.1058 L13.553,13.1058 C13.214,13.2748 13,13.6208 13,13.9998 L13,18.9998 C13,19.3788 13.214,19.7248 13.553,19.8948 L17.553,21.8948 C17.693,21.9648 17.847,21.9998 18,21.9998 C18.153,21.9998 18.307,21.9648 18.447,21.8948 L22.447,19.8948 C22.786,19.7248 23,19.3788 23,18.9998 L23,13.9998 C23,13.6208 22.786,13.2748 22.447,13.1058 L22.447,13.1058 Z" id="Fill-477" fill="#1882F8"></path>
            </g>
        </g>
    </g>
</svg>