<svg width="76" height="65" viewBox="0 0 76 65" xmlns="http://www.w3.org/2000/svg" xmlns:xlink="http://www.w3.org/1999/xlink"><title>ILLOSTRATION_ICON_AUTOMATION</title><defs><path d="M66.263 30.799A14.928 14.928 0 0 1 59 33.868V36a2 2 0 0 1-2 2h-1a2 2 0 0 1-2-2v-2.3a14.924 14.924 0 0 1-5.691-2.473L46.5 33.036a2 2 0 0 1-2.828 0l-.708-.708a2 2 0 0 1 0-2.828l1.81-1.809A14.918 14.918 0 0 1 42.131 21H40a2 2 0 0 1-2-2v-1a2 2 0 0 1 2-2h2.3a14.924 14.924 0 0 1 2.473-5.691L43.38 8.914a2 2 0 0 1 0-2.828l.707-.707a2 2 0 0 1 2.828 0l1.395 1.394A14.924 14.924 0 0 1 54 4.3V2a2 2 0 0 1 2-2h1a2 2 0 0 1 2 2v2.132c2.471.33 4.753 1.26 6.691 2.641L67.5 4.964a2 2 0 0 1 2.828 0l.708.708a2 2 0 0 1 0 2.828l-1.81 1.809A14.924 14.924 0 0 1 71.7 16H74a2 2 0 0 1 2 2v1a2 2 0 0 1-2 2h-2.132a14.908 14.908 0 0 1-2.238 6.095l1.698 1.698a2 2 0 0 1 0 2.828l-.707.707a2 2 0 0 1-2.828 0l-1.53-1.53zM57 24a5 5 0 1 0 0-10 5 5 0 0 0 0 10z" id="a"/><path d="M33.356 57.19a18.891 18.891 0 0 1-6.307 2.614v2.422a2 2 0 0 1-2 2h-4a2 2 0 0 1-2-2v-2.422a18.891 18.891 0 0 1-6.307-2.614l-1.986 1.986a2 2 0 0 1-2.828 0l-2.829-2.829a2 2 0 0 1 0-2.828l1.986-1.986a18.891 18.891 0 0 1-2.614-6.307H2.049a2 2 0 0 1-2-2v-4a2 2 0 0 1 2-2h2.422a18.89 18.89 0 0 1 2.58-6.255l-1.684-1.684a2 2 0 0 1 0-2.829l2.829-2.828a2 2 0 0 1 2.828 0l1.666 1.666a18.892 18.892 0 0 1 6.36-2.648v-2.422a2 2 0 0 1 2-2h4a2 2 0 0 1 2 2v2.422a18.896 18.896 0 0 1 6.556 2.778l1.736-1.736a2 2 0 0 1 2.829 0l2.828 2.829a2 2 0 0 1 0 2.828l-1.825 1.825a18.886 18.886 0 0 1 2.453 6.054h2.422a2 2 0 0 1 2 2v4a2 2 0 0 1-2 2h-2.422a18.891 18.891 0 0 1-2.614 6.307l1.572 1.572a2 2 0 0 1 0 2.828l-2.829 2.828a2 2 0 0 1-2.828 0l-1.572-1.571zM23.05 54.226c7.18 0 13-5.82 13-13s-5.82-13-13-13-13 5.82-13 13 5.82 13 13 13z" id="b"/></defs><g fill="none" fill-rule="evenodd"><g transform="rotate(-90 57 19)"><use fill="#FFF" xlink:href="#a"/><path stroke="#139FF0" stroke-width="1.5" d="M65.8 30.21l.523-.412 2 2a1.25 1.25 0 0 0 1.768 0l.707-.707a1.25 1.25 0 0 0 0-1.768l-2.125-2.125.326-.508a14.157 14.157 0 0 0 2.125-5.79l.087-.65H74c.69 0 1.25-.56 1.25-1.25v-1c0-.69-.56-1.25-1.25-1.25h-2.913l-.122-.6a14.173 14.173 0 0 0-2.35-5.406l-.367-.517 2.257-2.257a1.25 1.25 0 0 0 0-1.768l-.707-.707a1.25 1.25 0 0 0-1.768 0l-2.257 2.257-.517-.368a14.166 14.166 0 0 0-6.355-2.508l-.651-.087V2c0-.69-.56-1.25-1.25-1.25h-1c-.69 0-1.25.56-1.25 1.25v2.913l-.6.122a14.173 14.173 0 0 0-5.406 2.35l-.517.367-1.843-1.843a1.25 1.25 0 0 0-1.768 0l-.707.707a1.25 1.25 0 0 0 0 1.768l1.843 1.843-.368.517a14.173 14.173 0 0 0-2.349 5.405l-.122.601H40c-.69 0-1.25.56-1.25 1.25v1c0 .69.56 1.25 1.25 1.25h2.789l.087.65a14.166 14.166 0 0 0 2.508 6.356l.368.517-2.257 2.257a1.25 1.25 0 0 0 0 1.768l.707.707a1.25 1.25 0 0 0 1.768 0l2.257-2.257.517.368a14.173 14.173 0 0 0 5.405 2.349l.601.122V36c0 .69.56 1.25 1.25 1.25h1c.69 0 1.25-.56 1.25-1.25v-2.789l.65-.087a14.177 14.177 0 0 0 6.9-2.915zM57 24.75a5.75 5.75 0 1 1 0-11.5 5.75 5.75 0 0 1 0 11.5z"/></g><use fill="#FFF" xlink:href="#b"/><path stroke="#139FF0" stroke-width="1.5" d="M32.949 56.56l.509-.33 2 2.001a1.25 1.25 0 0 0 1.768 0l2.828-2.828a1.25 1.25 0 0 0 0-1.768l-2-2 .33-.51a18.14 18.14 0 0 0 2.51-6.056l.127-.593h3.028c.69 0 1.25-.56 1.25-1.25v-4c0-.69-.56-1.25-1.25-1.25h-3.028l-.127-.593a18.136 18.136 0 0 0-2.356-5.814l-.316-.506 2.247-2.246a1.25 1.25 0 0 0 0-1.768l-2.829-2.828a1.25 1.25 0 0 0-1.768 0l-2.171 2.171-.512-.342a18.145 18.145 0 0 0-6.297-2.669l-.593-.127v-3.028c0-.69-.56-1.25-1.25-1.25h-4c-.69 0-1.25.56-1.25 1.25v3.028l-.593.127a18.141 18.141 0 0 0-6.106 2.543l-.51.332-2.096-2.096a1.25 1.25 0 0 0-1.768 0l-2.828 2.828a1.25 1.25 0 0 0 0 1.768l2.111 2.112-.326.508a18.14 18.14 0 0 0-2.479 6.007l-.127.593H2.05c-.69 0-1.25.56-1.25 1.25v4c0 .69.56 1.25 1.25 1.25h3.028l.127.593a18.14 18.14 0 0 0 2.51 6.057l.33.509-2.414 2.414a1.25 1.25 0 0 0 0 1.768l2.828 2.828a1.25 1.25 0 0 0 1.768 0l2.414-2.414.51.33a18.14 18.14 0 0 0 6.056 2.51l.593.127v3.028c0 .69.56 1.25 1.25 1.25h4c.69 0 1.25-.56 1.25-1.25v-3.028l.593-.127a18.14 18.14 0 0 0 6.057-2.51zm-9.9-1.584c-7.594 0-13.75-6.156-13.75-13.75s6.156-13.75 13.75-13.75 13.75 6.156 13.75 13.75-6.156 13.75-13.75 13.75z"/></g></svg>