<svg width="1440" height="340" xmlns="http://www.w3.org/2000/svg" xmlns:xlink="http://www.w3.org/1999/xlink"><defs><path id="a" d="M0 0h1450v340H0z"/><radialGradient cx="100.669%" cy="-6.487%" fx="100.669%" fy="-6.487%" r="445.475%" gradientTransform="matrix(-.17177 .2769 -.0495 -.9609 1.176 -.406)" id="d"><stop stop-color="#00588E" offset="0%"/><stop stop-color="#005284" offset="13.301%"/><stop stop-color="#002B49" offset="100%"/></radialGradient><path id="c" d="M0 0h1902v340H0z"/><linearGradient x1="57.054%" y1="35.128%" x2="16.82%" y2="99.188%" id="e"><stop stop-color="#FFF" stop-opacity="0" offset="0%"/><stop offset="100%"/></linearGradient></defs><g transform="translate(-4)" fill="none" fill-rule="evenodd"><mask id="b" fill="#fff"><use xlink:href="#a"/></mask><use fill="#FFF" xlink:href="#a"/><g mask="url(#b)"><g transform="translate(-220)"><mask id="f" fill="#fff"><use xlink:href="#c"/></mask><use fill="url(#d)" xlink:href="#c"/><path d="M505.698-310.27l151.771-78.726 1009.887-130.241s381.809 593.294 0 791.06C697.883 488.355 144.013 266.67 144.013 266.67L370.79-225.127l134.908-85.142z" fill="url(#e)" style="mix-blend-mode:soft-light" mask="url(#f)" transform="scale(-1 1) rotate(55 0 -1979.04)"/><path d="M426.636 182.226L578.407 103.5 1588.295-26.74s381.808 593.294 0 791.06C618.822 980.851 64.95 759.165 64.95 759.165l226.778-491.797 134.907-85.143z" fill="url(#e)" style="mix-blend-mode:soft-light" mask="url(#f)" transform="scale(1 -1) rotate(-35 -408.7 0)"/></g></g></g></svg>