<svg width="53" height="66" viewBox="0 0 53 66" xmlns="http://www.w3.org/2000/svg"><title>ILLOSTRATION_ICON_CHECKLIST</title><g fill="none" fill-rule="evenodd"><rect x=".75" y=".75" width="51.5" height="64.5" rx="4" stroke="#139FF0" stroke-width="1.5"/><circle fill="#139FF0" opacity=".2" cx="28.917" cy="14.941" r="5"/><path d="M21.361 7.16c.242-1.082 1.023-1.276 1.743-.434l6.113 7.14c.721.843.43 1.744-.643 2.012l-7.746 1.931c-1.076.268-1.752-.394-1.512-1.474l2.045-9.175z" fill="#139FF0" opacity=".2"/><path d="M9 30c.844 2.136 1.844 3.136 3 3 .31-.077 1.644-2.41 4-7M9 42c.844 2.136 1.844 3.136 3 3 .31-.077 1.644-2.41 4-7M9 54c.844 2.136 1.844 3.136 3 3 .31-.077 1.644-2.41 4-7" stroke="#0093F1" stroke-width="1.5"/><path d="M22.5 27.75h20.02m-20.02 4h13.02m-13.02 8h16.02m-16.02 4h22.023m-22.023 8h17.02m-17.02 4h19.02" stroke="#0093F1" stroke-width="1.5" stroke-linecap="square"/></g></svg>