<svg width="56" height="58" xmlns="http://www.w3.org/2000/svg"><g fill="none" fill-rule="evenodd"><rect x=".75" y=".75" width="45.5" height="52.5" rx="4" stroke="#139FF0" stroke-width="1.5"/><g stroke="#0093F1" stroke-width="1.5"><path d="M6 15c.844 2.136 1.844 3.136 3 3 .31-.077 1.644-2.41 4-7M6 27c.844 2.136 1.844 3.136 3 3 .31-.077 1.644-2.41 4-7M6 39c.844 2.136 1.844 3.136 3 3 .31-.077 1.644-2.41 4-7"/><path d="M19.5 12.75h20.02m-20.02 4h13.02m-13.02 8h16.02m-16.02 4h22.023m-22.023 8h17.02m-17.02 4h19.02" stroke-linecap="square"/></g><g transform="translate(32 34)"><circle stroke="#139FF0" stroke-width="1.5" fill="#FFF" cx="11.5" cy="11.5" r="11.5"/><path d="M16.824 15.228A6.5 6.5 0 1 0 6.176 7.772a6.5 6.5 0 0 0 10.648 7.456z" fill="#D0ECFC"/><path d="M11.698.198v1.317m0 19.97v1.317m.199-15.319v4.7m-4.363.317h4.36M0 11.5h1.5m20 0h1.103" stroke="#139FF0" stroke-linecap="square" stroke-width="1.5"/></g></g></svg>