<svg width="61" height="79" xmlns="http://www.w3.org/2000/svg" xmlns:xlink="http://www.w3.org/1999/xlink"><defs><path d="M15.2 25.717c-4.238-2.07-7.2-6.798-7.2-12.3C8 6.007 10.459 0 20 0s12 6.007 12 13.417c0 5.275-2.723 9.84-6.684 12.031.049 2.426.441 3.987 1.177 4.683 1.182 1.12 5.96 1.707 9.228 2.67 2.179.643 3.605 2.36 4.279 5.148V46H0v-7.743c.6-2.788 1.988-4.52 4.164-5.196 3.265-1.013 9.968-1.638 10.505-2.93.32-.77.498-2.241.531-4.414z" id="a"/><rect id="b" x="3" y="74" width="54" height="5" rx="2"/></defs><g fill="none" fill-rule="evenodd"><g transform="translate(11)"><use fill-opacity=".2" fill="#139FF0" xlink:href="#a"/><path stroke="#139FF0" stroke-width="1.5" d="M.75 38.338v6.912h38.5v-7.21c-.622-2.493-1.861-3.964-3.742-4.519-.813-.24-1.703-.455-3.111-.767l-1.318-.29c-3.022-.67-4.36-1.085-5.102-1.788-.925-.876-1.358-2.601-1.41-5.213l-.01-.452.396-.219c3.817-2.112 6.297-6.488 6.297-11.375C31.25 5.029 28.064.75 20 .75S8.75 5.03 8.75 13.417c0 5.103 2.705 9.636 6.78 11.626l.428.21-.008.476c-.035 2.263-.22 3.806-.588 4.69-.448 1.075-1.73 1.435-6.537 2.366l-.13.025c-2.356.456-3.37.676-4.309.968-1.878.583-3.082 2.067-3.636 4.56z"/></g><path d="M4.691 41h52.407a3 3 0 0 1 2.973 3.402L55.936 75H5.643L1.715 44.382A3 3 0 0 1 4.691 41z" stroke="#139FF0" stroke-width="1.5" fill="#FFF"/><path fill="#139FF0" d="M31.856 55.978L34.118 53h6.322l-4.689 2.978-1.11 6.114L27.69 68l1.324-7.5L24 55.978h3.21l-.673-2.589z"/><g transform="translate(1)"><use fill="#FFF" xlink:href="#b"/><rect stroke="#139FF0" stroke-width="1.5" x="3.75" y="74.75" width="52.5" height="3.5" rx="1.75"/></g></g></svg>