<svg width="68" height="68" viewBox="0 0 68 68" xmlns="http://www.w3.org/2000/svg" xmlns:xlink="http://www.w3.org/1999/xlink"><title>ILLUSTRATION_ICON_GLOBE</title><defs><circle id="a" cx="34" cy="34" r="34"/></defs><g fill="none" fill-rule="evenodd"><use fill="#FFF" xlink:href="#a"/><circle stroke="#139FF0" stroke-width="1.5" cx="34" cy="34" r="33.25"/><g stroke="#139FF0" stroke-width="1.5"><path d="M43.907 35.7l.523.165-.523-.715v.55zm0 1.102v.75l.75-.75h-.75zm-.53 0h-.75l.75.75v-.75zm0-1.27v-1.025l-.976.716.976.308zm.796 7.357h-2.474l-1.307 2.5-5.135 1.803v5.064h1.43l4.763-1.96 3.352 3.76h2.617l3.532-5.95-1.496-5.18-2.75 2.305-2.532-2.342zM33.75 36.747l1.224 3.19 3.412 2.092-.338-1.292-1.894-3.173-2.404-.817zm19.208 18.591l.787.517 2.102-2.339.948-2.002a1.598 1.598 0 0 0-.448.178c-.548.304-1.006.84-1.371 1.63l-.06.129-1.958 1.887z"/><path d="M.978 40.391l4.464 5.967 1.12-1.864-.636-4.976.268-.26 2.222-2.152 2.096-2.647v-2.072l-1.688-.418-.114-.039-2.527-1.077-3.166-5.833.824-3.431.937.849 2.099 1.901 4.183 3.497 1.83.489 1.04-2.586-.159-.44-2.868.428-1.78-2.664 1.251-2.739 3.173 1.92h5.194l4.24 7.658.043.092.856 2.208.41-.163 2.132-3.955 2.412-3.397 2.923 2.218.078.164 2.467 5.179 1.82 3.018 1.651 1.263.878-1.102.419-1.499h-2.695l-1.197-1.156 1.696-3.015 1.241-.915v-2.264l.467-.993v-1.777l-1.534-3.264 1.405-2.212h1.865l.968-1.697.577-2.678-1.674-3.118-2.212-1.353.774-2.515 3.98-.688 3.719 1.435.714.896.112-.497.646-2.03-.964-2.496C43.148 1.749 39.721.834 36.678.834a64.44 64.44 0 0 1-2.212-.042A78.2 78.2 0 0 0 32.99.754c-3.461-.05-6.377.49-12.12 2.518-4.857 1.716-8.412 4.788-12.387 9.65-3.887 4.752-6.71 10.294-7.496 16.394C.675 31.744.67 35.44.978 40.39zm13.056-16.647h-.906l-2.09-1.265-.203.446.787 1.178 2.412-.36zm33.587 13.543l.145.652 1.536.344 4.505 1.47.557-.485-2.366-.854-3.062-1.127H47.62zm-.924-18.268l-.395 2.23-1.463 1.388 1 .667 1.112-1.789V19.02h-.254z"/><path d="M45.896 15.489l.04.015v.735l.75-.75h-.406l-.343-.5v.5h-.04zm-.49 0h-.75l.75.75v-.75zm0-.188v-1.092l-1.018.7 1.019.392zm-33.87 28.072l-.031.007.03-.05v.043zm-.431.105l-1.348.328-.86 3.546.616 2.048.168-.15.537-3.707 1.07-1.8-.183-.265zM45.937 58.6h.75l-.75-.75v.75zm0 .53v.75l.75-.75h-.75zm-1.545 0h-.75l.75.75v-.75zm0-.53v-.75l-.75.75h.75zm13.724-11.163h.75l-.75-.75v.75zm0 1.544v.75l.75-.75h-.75zm-.53 0h-.75l.75.75v-.75zm0-1.544v-.75l-.75.75h.75z"/></g><path d="M.812 41.421l4.699 6.28 1.828-3.044-.622-4.862 2.287-2.224 2.258-2.851V31.8l-2.258-.56-2.287-.974-2.903-5.351.46-1.921 2.122 1.92 4.31 3.604 2.631.703 1.397-3.468-.467-1.286-3.005.448-1.283-1.921.727-1.592 2.631 1.592H18.3l4.026 7.272 1.13 2.912 1.365-.543 2.213-4.117 1.964-2.765 2.161 1.64 2.502 5.242 1.894 3.14 2.348 1.796 1.43-1.796.726-2.597h-3.38l-.562-.543 1.333-2.37 1.416-1.044v-2.475l.467-.993V23.64l-1.43-3.042.963-1.516h1.889l1.241-2.176.66-3.061-1.901-3.54-1.889-1.155.467-1.519 3.322-.574 3.336 1.288 1.562 1.96.438-1.96.726-2.282-1.164-3.017a34.997 34.997 0 0 0-3.991-1.683C57.684 5.493 68 18.542 68 34c0 18.778-15.222 34-34 34C17.771 68 4.198 56.63.812 41.421zM0 34.071zm2.357-12.535c1.623-3.842 3.8-6.955 5.545-9.09.84-1.026 1.858-2.231 3.07-3.46a34.06 34.06 0 0 0-8.615 12.55zM33.253.008a34.662 34.662 0 0 1 3.15.076C35.24.077 34.24.028 33.253.008zm9.374 34.5v3.044h2.03V35.15l-2.03-.643zm1.84 7.63h-3.223l-1.38 2.642-5.357 1.88v6.346h2.329l4.408-1.814 3.222 3.614h3.38l3.915-6.597-1.905-6.597-3.126 2.62-2.264-2.093zm-11.99-6.616l1.888 4.922 5.217 3.198-.835-3.198-2.09-3.502-4.18-1.42zm23.506 15.514c-.697.387-1.26 1.045-1.688 1.972L51.76 55.45l2.111 1.386 2.606-2.9 1.373-2.9c-.548-.386-1.17-.386-1.868 0zm-9.296-14.499l.45 2.03 1.932.43 4.909 1.6 1.843-1.6-3.564-1.287-3.188-1.173h-2.382zm-.62-18.268l-.46 2.606-1.965 1.864 2.426 1.62 1.633-2.63v-3.46h-1.633zm-1.41-4.06v2.03h2.03v-1.25l-2.03-.78zM11.429 42.627l-2.293.558-1.017 4.188 1.017 3.373 1.248-1.12.555-3.828 1.24-2.084-.75-1.087zM43.642 57.85v2.03h3.045v-2.03h-3.045zm13.194-11.164v3.044h2.03v-3.044h-2.03z" fill="#139FF0" fill-opacity=".2"/><path d="M65 26H3m60.873 20H5.255M24 3s-5 11.814-5 31.5C19 54.189 24 66 24 66M43 3s5 11.814 5 31.5C48 54.189 43 66 43 66" stroke="#139FF0" stroke-width="1.5" stroke-linecap="square" stroke-dasharray="2,4"/></g></svg>