<svg width="70" height="68" viewBox="0 0 70 68" xmlns="http://www.w3.org/2000/svg"><title>ILLUSTRATION_ICON_NOFEES</title><g fill="none" fill-rule="evenodd"><ellipse cx="34" cy="32.64" rx="34" ry="32.64" stroke="#139FF0" stroke-dasharray="2,4" stroke-linecap="square" stroke-width="1.5" transform="translate(1 1)"/><path d="M56.51 12.49L10.458 58.542" stroke="#139FF0" stroke-width="1.5" stroke-linecap="square" stroke-dasharray="2,4"/><path d="M41.782 42.316c0-1.575-.516-2.864-1.547-3.867-1.031-1.002-2.85-1.97-5.457-2.9-2.979-.945-5.185-2.084-6.617-3.416-1.432-1.332-2.148-3.209-2.148-5.63 0-2.32.716-4.21 2.148-5.671 1.432-1.46 3.38-2.292 5.844-2.492V14h2.191v4.34c2.507.229 4.447 1.167 5.822 2.814s2.049 3.875 2.02 6.682l-.065.107h-2.406c0-2.177-.573-3.946-1.719-5.306-1.145-1.361-2.75-2.041-4.812-2.041-2.12 0-3.728.555-4.823 1.665-1.096 1.11-1.644 2.51-1.644 4.2 0 1.633.487 2.947 1.461 3.942.974.996 2.843 1.952 5.608 2.868 2.964.989 5.16 2.138 6.585 3.449 1.425 1.31 2.137 3.161 2.137 5.553 0 2.378-.745 4.28-2.234 5.705-1.49 1.425-3.495 2.237-6.016 2.438v4.082h-2.17v-4.06c-2.592-.158-4.744-.985-6.456-2.482-1.711-1.497-2.539-3.756-2.481-6.778l.064-.13h2.406c0 2.536.724 4.362 2.17 5.48 1.447 1.117 3.194 1.675 5.243 1.675 2.12 0 3.799-.555 5.038-1.665 1.239-1.11 1.858-2.517 1.858-4.222z" fill="#139FF0"/></g></svg>