<svg width="56" height="73" viewBox="0 0 56 73" xmlns="http://www.w3.org/2000/svg" xmlns:xlink="http://www.w3.org/1999/xlink"><title>Management</title><defs><ellipse id="a" cx="31" cy="42.5" rx="4" ry="2.5"/><path d="M7.198 36.13c-.517 0-2.093 1.304-4.729 3.912L.425 6.823C16.254 2.421 24.437.192 24.975.136c.539-.055 10.878 2.512 31.018 7.701l1.677 36.161-7.667 4.851-23.47-1.68 4.62-3.171-.822-5.156C15.426 37.034 7.715 36.13 7.198 36.13z" id="b"/></defs><g fill="none" fill-rule="evenodd"><path d="M.75 60.09v11.275h53.982V59.622c-.868-2.084-2.656-3.583-5.423-4.507-1.126-.376-2.47-.54-4.154-.552-.796-.005-1.5.018-2.819.08-4.024.187-5.192.103-6.137-.91-1.162-1.246-1.72-4.47-1.824-9.858l-.008-.42.354-.227c5.166-3.297 8.529-10.114 8.529-17.728 0-13.024-4.37-19.75-15.25-19.75-10.88 0-15.25 6.726-15.25 19.75 0 7.716 3.454 14.608 8.726 17.852l.361.222-.004.424c-.05 5.05-.3 8.168-.782 9.482-.521 1.417-1.806 1.542-7.1 1.44a119.51 119.51 0 0 0-2.09-.027c-2.686-.008-4.517.163-5.837.626C3.26 56.49 1.523 58.01.75 60.09z" stroke="#139FF0" stroke-width="1.5"/><g transform="translate(0 -6)"><use fill-opacity=".2" fill="#139FF0" xlink:href="#a"/><ellipse stroke="#139FF0" stroke-width="1.5" cx="31" cy="42.5" rx="3.25" ry="1.75"/></g><path d="M46 32.331c4.273.029 6.41-2.127 6.41-6.466 0-4.34-1.827-6.628-5.48-6.865L46 32.331zm-36.59 0C5.135 32.36 3 30.204 3 25.865c0-4.34 1.827-6.628 5.48-6.865l.93 13.331z" fill="#D0ECFC"/><path d="M8.603 31.558l-.817-11.726c-2.726.45-4.036 2.382-4.036 6.033 0 3.643 1.55 5.47 4.853 5.693zm38.203 0l.817-11.726c2.726.45 4.036 2.382 4.036 6.033 0 3.643-1.55 5.47-4.853 5.693z" stroke="#139FF0" stroke-width="1.5"/><g transform="translate(4 -6)"><mask id="c" fill="#fff"><use xlink:href="#b"/></mask><path d="M4.75 37.754l25.836 4.713c4.237-.065 7.412-.253 9.513-.563 1.021-.15 1.774-.328 2.245-.522.16-.066.275-.129.343-.18V20.817C39.733 11.397 33.605 6.75 24.162 6.75c-9.45 0-15.88 4.658-19.412 14.088v16.916z" stroke="#139FF0" stroke-width="1.5" mask="url(#c)"/></g></g></svg>