<svg width="66" height="71" viewBox="0 0 66 71" xmlns="http://www.w3.org/2000/svg" xmlns:xlink="http://www.w3.org/1999/xlink"><title>ILLUSTRATION_ICON_TRUST</title><defs><path d="M65.919 8.286C64.999 38.514 54.353 59.752 33.98 72 12.433 62.746 1.127 41.323.063 7.731c3.735 2.384 8.355 3.793 13.355 3.793 8.731 0 16.301-4.296 20.03-10.576 3.73 6.28 11.3 10.576 20.032 10.576 4.599 0 8.876-1.192 12.439-3.238z" id="a"/></defs><g fill="none" fill-rule="evenodd"><path d="M65.123 8.566c-3.503 1.763-7.493 2.708-11.643 2.708-8.334 0-15.892-3.84-20.031-9.929-4.139 6.089-11.697 9.93-20.03 9.93-4.52 0-8.849-1.123-12.557-3.193C2.172 40.433 13.2 61.08 33.924 70.158c19.63-11.959 30.031-32.46 31.2-61.592z" stroke="#139FF0" stroke-width="1.5"/><path d="M59 36H5" stroke="#139FF0" stroke-width="1.5" stroke-linecap="square"/><g transform="translate(0 -1)"><mask id="b" fill="#fff"><use xlink:href="#a"/></mask><g mask="url(#b)" stroke="#139FF0" stroke-linecap="square" stroke-width="1.5"><path d="M48.875 21v8M45 24.875h8"/></g><path fill="#139FF0" opacity=".2" mask="url(#b)" d="M-15-20h48v57h-48zm48 57h48v57H33z"/></g><path d="M33 2v66.01" stroke="#139FF0" stroke-width="1.5" stroke-linecap="square"/></g></svg>